<?xml version="1.0" encoding="UTF-8" standalone="no"?>
<svg
   xmlns:dc="http://purl.org/dc/elements/1.1/"
   xmlns:cc="http://creativecommons.org/ns#"
   xmlns:rdf="http://www.w3.org/1999/02/22-rdf-syntax-ns#"
   xmlns:svg="http://www.w3.org/2000/svg"
   xmlns="http://www.w3.org/2000/svg"
   xmlns:sodipodi="http://sodipodi.sourceforge.net/DTD/sodipodi-0.dtd"
   xmlns:inkscape="http://www.inkscape.org/namespaces/inkscape"
   inkscape:version="1.0 (4035a4f, 2020-05-01)"
   sodipodi:docname="logo-2.svg"
   id="svg1544"
   version="1.1"
   viewBox="0 0 197.95 238.46">
  <metadata
     id="metadata1550">
    <rdf:RDF>
      <cc:Work
         rdf:about="">
        <dc:format>image/svg+xml</dc:format>
        <dc:type
           rdf:resource="http://purl.org/dc/dcmitype/StillImage" />
      </cc:Work>
    </rdf:RDF>
  </metadata>
  <defs
     id="defs1548" />
  <sodipodi:namedview
     inkscape:current-layer="svg1544"
     inkscape:window-maximized="0"
     inkscape:window-y="36"
     inkscape:window-x="216"
     inkscape:cy="119.23"
     inkscape:cx="98.974998"
     inkscape:zoom="2.3064664"
     showgrid="false"
     id="namedview1546"
     inkscape:window-height="622"
     inkscape:window-width="1092"
     inkscape:pageshadow="2"
     inkscape:pageopacity="0"
     guidetolerance="10"
     gridtolerance="10"
     objecttolerance="10"
     borderopacity="1"
     bordercolor="#666666"
     pagecolor="#ffffff" />
  <title
     id="title1538">Asset 1</title>
  <g
     style="fill:#ffbc42;fill-opacity:1"
     data-name="Layer 2"
     id="Layer_2">
    <g
       style="fill:#ffbc42;fill-opacity:1"
       data-name="Layer 4 copy 2"
       id="Layer_4_copy_2">
      <path
         style="fill:#ffbc42;fill-opacity:1"
         id="path1540"
         d="M99,0A99,99,0,0,0,0,99C0,200.11,99,238.46,99,238.46S198,198,198,99A99,99,0,0,0,99,0Zm59,118.68-67.18,6,63.79,3.08L99,136.22l48.36,3.42-47,6.94,36.09,3.88-63.71,6.91,38.18-7.24-54.11-3.68L116.65,141l-68-4,77.1-6.7-83.07-4,71.57-7.18-75.38-4.89,58.74-6.45-59.87-2.23H160.2l-76.5,7.29ZM37.75,98.28a62.38,62.38,0,0,1,1.17-8.82L101,87.79,39.69,86.2a57.85,57.85,0,0,1,2-6.3l22.55-1.59S48.9,77.4,43.12,76.56a61.72,61.72,0,0,1,14.3-19.75l34-.79s-16.92-1.8-30.26-2.39a61.32,61.32,0,0,1,84.47,8.47C143,63.1,106,63.85,106,64c.35.12,38.57,1,42,1.18A61.07,61.07,0,0,1,156.5,80.6l-36.34,1.55,37.61,2.3a60.88,60.88,0,0,1,2.43,13.83Z" />
    </g>
  </g>
</svg>
