<?xml version="1.0" encoding="UTF-8" standalone="no"?>
<svg
   xmlns:dc="http://purl.org/dc/elements/1.1/"
   xmlns:cc="http://creativecommons.org/ns#"
   xmlns:rdf="http://www.w3.org/1999/02/22-rdf-syntax-ns#"
   xmlns:svg="http://www.w3.org/2000/svg"
   xmlns="http://www.w3.org/2000/svg"
   xmlns:sodipodi="http://sodipodi.sourceforge.net/DTD/sodipodi-0.dtd"
   xmlns:inkscape="http://www.inkscape.org/namespaces/inkscape"
   inkscape:version="1.0 (4035a4f, 2020-05-01)"
   sodipodi:docname="logo-1.svg"
   id="svg911"
   version="1.1"
   viewBox="0 0 249.82 238.27">
  <metadata
     id="metadata917">
    <rdf:RDF>
      <cc:Work
         rdf:about="">
        <dc:format>image/svg+xml</dc:format>
        <dc:type
           rdf:resource="http://purl.org/dc/dcmitype/StillImage" />
      </cc:Work>
    </rdf:RDF>
  </metadata>
  <defs
     id="defs915" />
  <sodipodi:namedview
     inkscape:current-layer="svg911"
     inkscape:window-maximized="0"
     inkscape:window-y="87"
     inkscape:window-x="244"
     inkscape:cy="119.135"
     inkscape:cx="124.91"
     inkscape:zoom="2.2663365"
     showgrid="false"
     id="namedview913"
     inkscape:window-height="539"
     inkscape:window-width="982"
     inkscape:pageshadow="2"
     inkscape:pageopacity="0"
     guidetolerance="10"
     gridtolerance="10"
     objecttolerance="10"
     borderopacity="1"
     bordercolor="#666666"
     pagecolor="#ffffff" />
  <title
     id="title904">Layer 3 copy</title>
  <g
     style="fill:#ffbc42;fill-opacity:1"
     data-name="Layer 2"
     id="Layer_2">
    <g
       style="fill:#ffbc42;fill-opacity:1"
       data-name="Layer 4 copy"
       id="Layer_4_copy">
      <g
         style="fill:#ffbc42;fill-opacity:1"
         data-name="Layer 3 copy"
         id="Layer_3_copy">
        <path
           style="fill:#ffbc42;fill-opacity:1"
           id="path906"
           d="M 249.82,117.72 H 0 a 125.49,125.49 0 0 1 2.37,-18 L 129,96.32 3.94,93.06 A 123.26,123.26 0 0 1 8.09,80.22 l 46,-3.24 c 0,0 -31.36,-1.85 -43.09,-3.59 A 125.49,125.49 0 0 1 40.12,33.12 l 69.35,-1.63 c 0,0 -34.47,-3.68 -61.73,-4.87 a 125.13,125.13 0 0 1 172.33,17.27 c -5.41,2.06 -81.52,3.6 -80.75,3.86 0.77,0.26 78.7,2 85.78,2.41 a 125,125 0 0 1 17.18,31.49 l -74.15,3.15 76.75,4.71 a 124,124 0 0 1 4.94,28.21 z M 0,132.54 122.13,137.07 2.3,150.23 l 153.79,10 -146,14.64 L 179.57,183 22.25,196.7 161,205 38.87,216 l 110.43,7.51 -77.93,14.76 130,-14.08 -73.64,-7.93 95.83,-14.15 -98.66,-7 L 238.38,177.93 108.23,171.65 245.3,159.34 93.74,147.41 249.82,132.54 Z" />
      </g>
    </g>
  </g>
</svg>
